<?xml version="1.0" encoding="utf-8"?>
<!-- Generator: Adobe Illustrator 21.0.0, SVG Export Plug-In . SVG Version: 6.00 Build 0)  -->
<svg version="1.1" id="Camada_1" xmlns="http://www.w3.org/2000/svg" xmlns:xlink="http://www.w3.org/1999/xlink" x="0px" y="0px"
	 viewBox="0 0 80.1 80.2" style="enable-background:new 0 0 80.1 80.2;" xml:space="preserve">
<style type="text/css">
	.st0{fill:#58595B;}
	.st1{clip-path:url(#SVGID_2_);fill:#58595B;}
</style>
<path class="st0" d="M62.2,62.9v3.2h-0.5v-3.2h-1v-0.4h2.5v0.4H62.2z M66.5,66.1v-2.6l-0.9,1.7h-0.5l-0.9-1.7v2.6h-0.5v-3.6h0.5
	l1.1,2.2l1.1-2.2H67v3.6H66.5z"/>
<g>
	<defs>
		<rect id="SVGID_1_" y="0" width="80.1" height="80.2"/>
	</defs>
	<clipPath id="SVGID_2_">
		<use xlink:href="#SVGID_1_"  style="overflow:visible;"/>
	</clipPath>
	<path class="st1" d="M75.5,35.5c-3-3.7-9.9-6.7-18.5-8.5C54.5,13,48,3,40.3,3c-7.6,0-14.2,9.7-16.9,23.4C7.7,29-0.7,35.6,4.5,42
		c2.9,3.7,9.7,6.7,18.2,8.4c2.1,15.4,8.9,26.7,17.1,26.8c2.9,0,5.6-1.3,8-3.8C54.6,66,57,55,57.8,47.1c0.2-2.2,0.3-4.5,0.4-6.9
		c0-0.9,0-1.8,0-2.7h0v-0.2v-0.1l0.3,0.2c3,0.8,5.3,1.8,6.3,3.1c1.5,1.9-0.1,3.8-3.8,5.4c-0.2,1.6-0.4,3.1-0.7,4.5
		C73.6,47.5,80.3,41.5,75.5,35.5 M35.2,12.1c3.4,0,6.3,5.4,7.8,13.3c-4.4-0.2-8.9-0.1-13.4,0.3c-0.8,0.1-1.6,0.2-2.4,0.3
		C28.6,17.7,31.7,12.1,35.2,12.1 M43.8,41c-0.4,7.6-1.5,10.9-1.7,11.4h0c-1.7,6.3-4.3,10.4-7.3,10.4c-1.5,0-2.9-1-4.1-2.9
		C28,55.9,27,49,27,49c-4.2-0.7-4.6-0.9-4.6-0.9c-0.4-0.1-0.8-0.2-1.1-0.3c-2.4-0.7-4.2-1.7-5-2.7c-1.6-2,0.2-4,4.4-5.7
		c0.9-0.4,1.5-0.6,1.5-0.6c11.2-3.6,21.8-2.9,21.8-2.9v0.8c0,0.3,0,0.5,0,0.8C43.9,38.7,43.9,39.8,43.8,41"/>
</g>
</svg>
