<?xml version="1.0" encoding="utf-8"?>
<!-- Generator: Adobe Illustrator 21.0.0, SVG Export Plug-In . SVG Version: 6.00 Build 0)  -->
<svg version="1.1" id="Camada_1" xmlns="http://www.w3.org/2000/svg" xmlns:xlink="http://www.w3.org/1999/xlink" x="0px" y="0px"
	 viewBox="0 0 87.1 87.2" style="enable-background:new 0 0 87.1 87.2;" xml:space="preserve">
<style type="text/css">
	.st0{fill:#58595B;}
	.st1{clip-path:url(#SVGID_2_);fill:#53C4CD;}
</style>
<path class="st0" d="M67.9,68v3.3h-0.5V68h-1v-0.5H69V68H67.9z M72.5,71.3v-2.7l-0.9,1.8h-0.5l-0.9-1.8v2.7h-0.5v-3.8h0.5l1.1,2.3
	l1.1-2.3H73v3.8H72.5z"/>
<g>
	<defs>
		<rect id="SVGID_1_" y="0" width="87.1" height="87.2"/>
	</defs>
	<clipPath id="SVGID_2_">
		<use xlink:href="#SVGID_1_"  style="overflow:visible;"/>
	</clipPath>
	<path class="st1" d="M81.3,40c-3.1-3.9-10.2-6.9-19.1-8.8C59.6,16.8,52.9,6.5,45,6.4c-7.9,0-14.7,10-17.5,24.2
		C11.2,33.3,2.7,40.1,8,46.8c3,3.8,10,6.9,18.8,8.7C29,71.4,36,83,44.5,83.1c3,0,5.8-1.4,8.2-3.9c7-7.7,9.4-19.1,10.3-27.2h0
		c0.2-2.3,0.4-4.7,0.4-7.1c0-0.9,0-1.9,0-2.8l0,0c0,0,0-0.1,0-0.2h0c0,0,0-0.1,0-0.1l0.3,0.2c3.1,0.8,5.5,1.9,6.5,3.2
		c1.5,1.9-0.1,3.9-3.9,5.6c-0.2,1.6-0.4,3.2-0.8,4.7C79.3,52.4,86.3,46.2,81.3,40 M39.6,15.8c3.5,0,6.5,5.5,8,13.7
		c-4.5-0.2-9.2-0.1-13.9,0.3c-0.8,0.1-1.7,0.2-2.5,0.3C32.9,21.6,36.1,15.8,39.6,15.8 M48.6,45.6c-0.4,7.9-1.6,11.3-1.8,11.8h0
		c-1.7,6.5-4.5,10.8-7.5,10.7c-1.5,0-3-1.1-4.2-3c-2.9-4.2-3.9-11.3-3.9-11.3c-4.4-0.8-4.7-0.9-4.7-0.9c-0.4-0.1-0.8-0.2-1.2-0.4
		c-2.5-0.8-4.3-1.7-5.2-2.8c-1.6-2,0.2-4.1,4.5-5.9c0.9-0.4,1.6-0.6,1.6-0.6c11.6-3.7,22.5-3,22.5-3c0,0.3,0,0.6,0,0.8
		c0,0.3,0,0.6,0,0.8C48.7,43.3,48.6,44.4,48.6,45.6"/>
</g>
</svg>
