<?xml version="1.0" encoding="utf-8"?>
<!-- Generator: Adobe Illustrator 21.0.0, SVG Export Plug-In . SVG Version: 6.00 Build 0)  -->
<svg version="1.1" id="Camada_1" xmlns="http://www.w3.org/2000/svg" xmlns:xlink="http://www.w3.org/1999/xlink" x="0px" y="0px"
	 viewBox="0 0 168.3 114.2" style="enable-background:new 0 0 168.3 114.2;" xml:space="preserve">
<style type="text/css">
	.st0{fill:#58595B;}
	.st1{clip-path:url(#SVGID_2_);fill:#58595B;}
	.st2{clip-path:url(#SVGID_2_);fill:#F2F2F2;}
</style>
<path class="st0" d="M159.6,69.7v2.4h-0.4v-2.4h-0.8v-0.3h1.9v0.3H159.6z M163,72.1v-2l-0.7,1.3h-0.4l-0.7-1.3v2h-0.4v-2.8h0.4
	l0.8,1.7l0.8-1.7h0.4v2.8H163z"/>
<rect x="5.5" y="22.5" class="st0" width="7.6" height="28.9"/>
<g>
	<defs>
		<rect id="SVGID_1_" y="0" width="168.3" height="114.2"/>
	</defs>
	<clipPath id="SVGID_2_">
		<use xlink:href="#SVGID_1_"  style="overflow:visible;"/>
	</clipPath>
	<path class="st1" d="M30.6,52.2c-2.3,0-4.4-0.4-6.3-1.1c-1.8-0.7-3.4-1.8-4.7-3.1c-1.3-1.3-2.2-2.9-2.9-4.8c-0.7-1.9-1-3.9-1-6.2
		c0-2.3,0.3-4.4,1-6.2c0.7-1.9,1.7-3.5,3-4.8c1.3-1.3,2.8-2.4,4.7-3.1c1.8-0.7,3.9-1.1,6.2-1.1c2.3,0,4.3,0.4,6.1,1.1
		c1.8,0.7,3.3,1.7,4.6,3.1c1.3,1.3,2.2,2.9,2.9,4.8c0.7,1.9,1,4,1,6.3c0,2.3-0.3,4.4-1,6.3c-0.7,1.9-1.7,3.5-2.9,4.8
		c-1.3,1.3-2.8,2.4-4.6,3.1C34.8,51.8,32.8,52.2,30.6,52.2 M30.6,45.8c4.7,0,7-2.9,7-8.8c0-5.8-2.3-8.8-7-8.8s-7,2.9-7,8.8
		C23.6,42.9,25.9,45.8,30.6,45.8"/>
	<path class="st1" d="M66.3,51.4V33.9c0-2.2-0.4-3.7-1.1-4.5c-0.7-0.8-2-1.2-3.8-1.2c-4,0-5.9,2.2-5.9,6.6v16.6h-7.6V22.5H55v4.2
		c0.9-1.7,2.1-2.9,3.6-3.8c1.5-0.8,3.4-1.3,5.7-1.3c1.4,0,2.6,0.2,3.8,0.6c1.2,0.4,2.2,1,3,1.9c0.8,0.8,1.5,1.8,2,3
		c0.5,1.2,0.7,2.6,0.7,4.2v20.1H66.3z"/>
	<rect x="77.2" y="22.5" class="st1" width="7.6" height="28.9"/>
	<path class="st1" d="M114.1,41c-0.2,1.7-0.7,3.2-1.4,4.6c-0.8,1.4-1.7,2.5-2.9,3.5c-1.2,1-2.5,1.7-4,2.3c-1.5,0.5-3.1,0.8-4.9,0.8
		c-2,0-3.8-0.3-5.4-1c-1.6-0.6-3-1.6-4.2-2.9c-1.2-1.3-2.1-2.9-2.7-4.9c-0.6-1.9-1-4.2-1-6.8c0-2.6,0.3-4.8,1-6.7
		c0.6-1.9,1.6-3.4,2.7-4.6c1.2-1.2,2.6-2.1,4.3-2.7c1.7-0.6,3.5-0.9,5.6-0.9c1.9,0,3.6,0.3,5.1,0.8c1.5,0.5,2.9,1.3,4.1,2.2
		c1.2,1,2.1,2.2,2.7,3.5c0.7,1.4,1.1,2.9,1.2,4.6h-7.7c-0.2-1.5-0.8-2.7-1.8-3.5c-1-0.8-2.2-1.3-3.7-1.3c-0.8,0-1.6,0.1-2.3,0.4
		c-0.7,0.3-1.3,0.7-1.9,1.4c-0.5,0.6-0.9,1.5-1.3,2.6c-0.3,1.1-0.5,2.4-0.5,4c0,3.2,0.6,5.5,1.7,7.1c1.1,1.5,2.4,2.3,3.9,2.3
		c1.5,0,2.8-0.4,3.8-1.2c1.1-0.8,1.7-2,1.8-3.6H114.1z"/>
	<path class="st1" d="M24,96.5V78.6c0-2.2-0.4-3.7-1.1-4.5c-0.8-0.8-2-1.2-3.8-1.2c-0.9,0-1.8,0.2-2.5,0.6c-0.7,0.4-1.4,0.9-1.9,1.5
		c-0.5,0.6-0.9,1.4-1.1,2.2c-0.3,0.8-0.4,1.8-0.4,2.7v16.6H5.5V57h7.6l0,14.3c0.3-0.6,0.7-1.2,1.3-1.8c0.6-0.6,1.2-1,2-1.4
		c0.7-0.4,1.6-0.7,2.5-0.9c0.9-0.2,1.8-0.4,2.8-0.4c3,0,5.4,0.8,7.2,2.4c1.9,1.6,2.8,3.9,2.8,6.8v20.5H24z"/>
	<path class="st1" d="M41.8,84c0.1,2.2,0.8,3.9,1.9,5.2c1.2,1.3,2.7,1.9,4.6,1.9c1.3,0,2.4-0.3,3.3-0.9c1-0.6,1.6-1.4,1.9-2.4h7.9
		c-0.9,3-2.5,5.3-4.7,6.9c-2.2,1.6-4.9,2.4-8,2.4c-9.6,0-14.5-5.3-14.5-15.7c0-2.2,0.3-4.3,0.9-6.1c0.6-1.8,1.5-3.3,2.7-4.6
		c1.2-1.3,2.7-2.3,4.4-3c1.7-0.7,3.7-1,5.9-1c4.5,0,7.8,1.4,10.1,4.3c2.3,2.9,3.4,7.2,3.4,12.9H41.8z M53.8,79.2
		c0-1.1-0.2-2-0.6-2.8c-0.3-0.8-0.8-1.5-1.3-2c-0.5-0.5-1.2-0.9-1.9-1.2c-0.7-0.3-1.4-0.4-2.2-0.4c-1.5,0-2.9,0.6-4,1.7
		c-1.1,1.1-1.8,2.7-1.9,4.7H53.8z"/>
	<path class="st1" d="M82.1,96.5c-0.2-0.7-0.4-1.6-0.5-2.6c-0.9,1-2.1,1.8-3.6,2.4c-1.5,0.6-3.2,0.9-5.2,0.9c-3.3,0-5.8-0.7-7.3-2.2
		c-1.5-1.5-2.3-3.4-2.3-5.7c0-2.1,0.3-3.7,1-5c0.7-1.2,1.6-2.2,2.8-2.9c1.2-0.7,2.6-1.2,4.2-1.6c1.6-0.3,3.4-0.6,5.3-0.9
		c1.9-0.3,3.2-0.6,3.9-1.1c0.7-0.5,1-1.2,1-2.2c0-0.9-0.4-1.7-1.3-2.2c-0.9-0.5-2.1-0.8-3.6-0.8c-1.8,0-3,0.4-3.8,1.2
		c-0.8,0.8-1.2,1.8-1.4,3.1h-7.1c0-1.5,0.3-2.9,0.7-4.1c0.5-1.3,1.2-2.3,2.2-3.2c1-0.9,2.3-1.6,3.9-2.1c1.6-0.5,3.6-0.7,5.9-0.7
		c2.3,0,4.2,0.3,5.8,0.8c1.6,0.5,2.9,1.2,3.8,2.2c1,1,1.7,2.2,2.1,3.6c0.4,1.4,0.6,3,0.6,4.8v18.3H82.1z M81.6,82.3
		c-0.4,0.4-1,0.7-1.7,0.9c-0.7,0.2-1.8,0.5-3.2,0.8c-2.2,0.4-3.7,1-4.5,1.6c-0.8,0.7-1.2,1.6-1.2,2.9c0,2.2,1.2,3.2,3.7,3.2
		c1,0,1.9-0.2,2.7-0.5c0.8-0.3,1.6-0.8,2.2-1.4c0.6-0.6,1.1-1.2,1.5-2c0.4-0.8,0.6-1.6,0.6-2.4L81.6,82.3z"/>
	<rect x="92.3" y="57" class="st1" width="7.6" height="39.5"/>
	<path class="st1" d="M119.3,77.5h7v8.2c0,1.5-0.2,3-0.7,4.4c-0.4,1.4-1.2,2.6-2.1,3.7c-1,1.1-2.2,1.9-3.6,2.6
		c-1.5,0.6-3.2,0.9-5.2,0.9c-2.1,0-3.9-0.3-5.4-0.9c-1.5-0.6-2.7-1.5-3.7-2.5c-1-1.1-1.7-2.3-2.1-3.7c-0.4-1.4-0.6-2.9-0.6-4.5V59.8
		h7.6v7.8h15.9V73h-15.9v11.9c0,1.8,0.3,3.3,1,4.3c0.7,1,1.8,1.5,3.4,1.5c1.5,0,2.6-0.5,3.4-1.5c0.7-1,1.1-2.4,1.1-4.2V77.5z"/>
	<path class="st1" d="M147.7,96.5V78.6c0-2.2-0.4-3.7-1.1-4.5c-0.8-0.8-2-1.2-3.8-1.2c-0.9,0-1.8,0.2-2.5,0.6
		c-0.7,0.4-1.4,0.9-1.9,1.5c-0.5,0.6-0.9,1.4-1.1,2.2c-0.3,0.8-0.4,1.8-0.4,2.7v16.6h-7.6V57h7.6l0,14.3c0.3-0.6,0.7-1.2,1.3-1.8
		c0.6-0.6,1.2-1,2-1.4c0.7-0.4,1.6-0.7,2.5-0.9c0.9-0.2,1.8-0.4,2.8-0.4c3,0,5.4,0.8,7.2,2.4c1.9,1.6,2.8,3.9,2.8,6.8v20.5H147.7z"
		/>
	<path class="st2" d="M138.7,16.3c-1.2-1.5-3.9-2.7-7.4-3.4c-1-5.6-3.6-9.6-6.7-9.6c-3,0-5.7,3.8-6.7,9.3c-6.3,1-9.6,3.7-7.5,6.2
		c1.2,1.5,3.9,2.6,7.2,3.4c0.8,6.1,3.6,10.6,6.8,10.7c1.1,0,2.2-0.5,3.2-1.5c2.7-3,3.6-7.4,4-10.5h0c0.1-0.9,0.1-1.8,0.1-2.7
		c0-0.4,0-0.7,0-1.1h0c0,0,0,0,0-0.1h0c0,0,0,0,0,0l0.1,0.1c1.2,0.3,2.1,0.7,2.5,1.2c0.6,0.7,0,1.5-1.5,2.2
		c-0.1,0.6-0.2,1.2-0.3,1.8C137.9,21.1,140.6,18.7,138.7,16.3 M122.6,7c1.3,0,2.5,2.1,3.1,5.3c-1.8-0.1-3.6,0-5.3,0.1
		c-0.3,0-0.6,0.1-1,0.1C120,9.2,121.2,7,122.6,7 M126,18.5c-0.1,3-0.6,4.4-0.7,4.5h0c-0.7,2.5-1.7,4.2-2.9,4.1
		c-0.6,0-1.1-0.4-1.6-1.1c-1.1-1.6-1.5-4.3-1.5-4.3c-1.7-0.3-1.8-0.4-1.8-0.4c-0.2,0-0.3-0.1-0.4-0.1c-1-0.3-1.7-0.7-2-1.1
		c-0.6-0.8,0.1-1.6,1.7-2.3c0.3-0.1,0.6-0.2,0.6-0.2c4.5-1.4,8.7-1.1,8.7-1.1c0,0.1,0,0.2,0,0.3c0,0.1,0,0.2,0,0.3
		C126.1,17.6,126.1,18,126,18.5"/>
</g>
</svg>
