<svg xmlns="http://www.w3.org/2000/svg" viewBox="0 0 349.53 61.75"><defs><style>.cls-1{fill:#58595b;}.cls-2{fill:#f2f2f2;}</style></defs><g id="Layer_2" data-name="Layer 2"><g id="Camada_1" data-name="Camada 1"><path class="cls-1" d="M0,60.82V25.7H9.28V60.82Z"/><path class="cls-1" d="M30.44,61.75a20,20,0,0,1-7.62-1.36,15.69,15.69,0,0,1-9.19-9.65,22.4,22.4,0,0,1-1.21-7.51,21.84,21.84,0,0,1,1.25-7.58,16.41,16.41,0,0,1,3.59-5.87A16.05,16.05,0,0,1,22.93,26a20.11,20.11,0,0,1,7.51-1.33A19.69,19.69,0,0,1,37.85,26a15.93,15.93,0,0,1,5.59,3.72A16.19,16.19,0,0,1,47,35.58a22.24,22.24,0,0,1,1.25,7.65A22,22,0,0,1,47,50.84a16.64,16.64,0,0,1-3.56,5.83,15.78,15.78,0,0,1-5.63,3.76A19.7,19.7,0,0,1,30.44,61.75Zm0-7.78Q39,54,39,43.26T30.48,32.63Q22,32.63,22,43.26T30.48,54Z"/><path class="cls-1" d="M73.8,60.82V39.55q0-4.06-1.35-5.5t-4.64-1.42q-7.22,0-7.21,8.06V60.82H51.32V25.7h8.85v5.13a11.37,11.37,0,0,1,4.34-4.58,13.94,13.94,0,0,1,7-1.55,13.63,13.63,0,0,1,4.63.76,9.8,9.8,0,0,1,3.66,2.25,10.77,10.77,0,0,1,2.42,3.68,13.34,13.34,0,0,1,.89,5V60.82Z"/><path class="cls-1" d="M87.08,60.82V25.7h9.28V60.82Z"/><path class="cls-1" d="M131.9,48.12A14.93,14.93,0,0,1,126.62,58a16.35,16.35,0,0,1-4.89,2.78,17.22,17.22,0,0,1-6,1,17.41,17.41,0,0,1-6.53-1.18,13.27,13.27,0,0,1-5.1-3.57,16.51,16.51,0,0,1-3.32-5.92,26,26,0,0,1-1.18-8.25,24.91,24.91,0,0,1,1.18-8.13,14.58,14.58,0,0,1,3.32-5.61,13.3,13.3,0,0,1,5.17-3.24,21.73,21.73,0,0,1,13-.15,14.69,14.69,0,0,1,4.93,2.72,13,13,0,0,1,3.32,4.28A15,15,0,0,1,132,38.27h-9.35A6.43,6.43,0,0,0,120.45,34,6.72,6.72,0,0,0,116,32.48a7.72,7.72,0,0,0-2.79.5A5.65,5.65,0,0,0,111,34.66a8.93,8.93,0,0,0-1.53,3.14,17.54,17.54,0,0,0-.57,4.82q0,5.77,2.07,8.57A5.93,5.93,0,0,0,115.7,54a7.31,7.31,0,0,0,4.64-1.5,6,6,0,0,0,2.21-4.35Z"/><path class="cls-1" d="M158.12,60.82V39.05q0-4-1.39-5.46t-4.6-1.46a6.65,6.65,0,0,0-5.36,2.53,8.14,8.14,0,0,0-1.39,2.72,11.32,11.32,0,0,0-.46,3.31V60.82h-9.28v-48h9.28l0,17.41a7.11,7.11,0,0,1,1.53-2.18,9.66,9.66,0,0,1,2.38-1.74,14,14,0,0,1,3-1.15,13.81,13.81,0,0,1,3.42-.42,12.86,12.86,0,0,1,8.8,3A10.38,10.38,0,0,1,167.4,36V60.82Z"/><path class="cls-1" d="M179.68,45.69A10,10,0,0,0,182,52a7.05,7.05,0,0,0,5.53,2.36,7.78,7.78,0,0,0,4-1,4.65,4.65,0,0,0,2.25-2.89h9.56a15.36,15.36,0,0,1-5.7,8.35A16.23,16.23,0,0,1,188,61.75q-17.57,0-17.56-19.13a22.32,22.32,0,0,1,1.14-7.35,15.87,15.87,0,0,1,3.32-5.64A14.4,14.4,0,0,1,180.18,26a19.42,19.42,0,0,1,7.21-1.24q8.13,0,12.31,5.21t4.17,15.7Zm14.63-5.85a9.63,9.63,0,0,0-.68-3.39A6.93,6.93,0,0,0,192,34a6.33,6.33,0,0,0-2.28-1.43,7.72,7.72,0,0,0-2.64-.46,6.61,6.61,0,0,0-4.82,2A8.73,8.73,0,0,0,180,39.84Z"/><path class="cls-1" d="M228.71,60.82a13.66,13.66,0,0,1-.57-3.14,11.37,11.37,0,0,1-4.35,3,16.49,16.49,0,0,1-6.28,1.11q-6.07,0-8.89-2.68a9.15,9.15,0,0,1-2.82-7,12.73,12.73,0,0,1,1.21-6,9.06,9.06,0,0,1,3.36-3.53,16,16,0,0,1,5.1-1.89q3-.61,6.46-1.11a12.36,12.36,0,0,0,4.71-1.32,3.25,3.25,0,0,0-.39-5.35,8.28,8.28,0,0,0-4.32-1q-3.21,0-4.6,1.43a6.67,6.67,0,0,0-1.75,3.78h-8.64a15.91,15.91,0,0,1,.9-5,9.5,9.5,0,0,1,2.64-3.93,12.3,12.3,0,0,1,4.74-2.53,24.42,24.42,0,0,1,7.12-.89,23.41,23.41,0,0,1,7,.92A11.29,11.29,0,0,1,234,28.38a10.22,10.22,0,0,1,2.52,4.36,20.11,20.11,0,0,1,.79,5.88v22.2Zm-.64-17.2A5,5,0,0,1,226,44.76a35.48,35.48,0,0,1-3.93.93,13.23,13.23,0,0,0-5.49,2,4.23,4.23,0,0,0-1.5,3.5q0,3.91,4.5,3.92a8.9,8.9,0,0,0,3.32-.61,8.24,8.24,0,0,0,2.64-1.64,8.38,8.38,0,0,0,1.78-2.42,6.74,6.74,0,0,0,.68-3Z"/><path class="cls-1" d="M241.06,60.82v-48h9.28v48Z"/><path class="cls-1" d="M273.89,37.69h8.57v10a17.11,17.11,0,0,1-.82,5.32,12.53,12.53,0,0,1-2.56,4.49,12.21,12.21,0,0,1-4.42,3.11,16.15,16.15,0,0,1-6.37,1.14,16.85,16.85,0,0,1-6.55-1.14,12.45,12.45,0,0,1-4.45-3.07,11.7,11.7,0,0,1-2.53-4.5,18.55,18.55,0,0,1-.78-5.42V16.21h9.21V25.7h19.27v6.57H263.19V46.69a9.08,9.08,0,0,0,1.24,5.17,4.54,4.54,0,0,0,4.07,1.82,4.71,4.71,0,0,0,4.08-1.78,8.41,8.41,0,0,0,1.31-5.07Z"/><path class="cls-1" d="M308.37,60.82V39.05c0-2.66-.47-4.48-1.39-5.46s-2.47-1.46-4.61-1.46A6.62,6.62,0,0,0,297,34.66a8.14,8.14,0,0,0-1.39,2.72,11.32,11.32,0,0,0-.47,3.31V60.82h-9.28v-48h9.28l0,17.41a7.29,7.29,0,0,1,1.53-2.18,9.72,9.72,0,0,1,2.39-1.74,14,14,0,0,1,3-1.15,13.69,13.69,0,0,1,3.42-.42,12.86,12.86,0,0,1,8.8,3A10.38,10.38,0,0,1,317.65,36V60.82Z"/><path class="cls-2" d="M345.16,26.78v2.87h-.44V26.78h-.91v-.4h2.27v.4Zm3.93,2.87V27.29l-.78,1.55h-.43l-.78-1.55v2.36h-.45V26.38h.45l1,2,1-2h.44v3.27Z"/><path class="cls-2" d="M347.57,15.82c-1.45-1.82-4.8-3.27-9-4.14C337.36,4.88,334.19,0,330.45,0s-6.91,4.69-8.24,11.38c-7.65,1.27-11.69,4.46-9.17,7.61,1.43,1.79,4.72,3.23,8.85,4.1,1,7.49,4.34,13,8.32,13a5.51,5.51,0,0,0,3.89-1.82c3.28-3.63,4.44-9,4.83-12.83h0c.1-1.08.16-2.19.17-3.34,0-.44,0-.88,0-1.31h0v-.08h0v0l.17.07a5.93,5.93,0,0,1,3.05,1.5c.72.9,0,1.85-1.84,2.64-.09.76-.21,1.5-.36,2.21C346.64,21.66,349.9,18.72,347.57,15.82ZM327.94,4.41c1.64,0,3.05,2.62,3.76,6.44a47.47,47.47,0,0,0-6.52.15c-.39,0-.78.07-1.16.12C324.77,7.13,326.25,4.4,327.94,4.41Zm4.2,14.05a19.56,19.56,0,0,1-.82,5.54h0c-.81,3.08-2.1,5.07-3.55,5.06a2.59,2.59,0,0,1-2-1.4,15.35,15.35,0,0,1-1.83-5.3c-2.05-.37-2.23-.44-2.23-.44l-.55-.18a5.13,5.13,0,0,1-2.44-1.33c-.76-.95.11-1.95,2.12-2.75a7.72,7.72,0,0,1,.73-.29A32.44,32.44,0,0,1,332.19,16v.4c0,.13,0,.26,0,.4C332.19,17.34,332.17,17.9,332.14,18.46Z"/></g></g></svg>