<?xml version="1.0" encoding="utf-8"?>
<!-- Generator: Adobe Illustrator 21.0.0, SVG Export Plug-In . SVG Version: 6.00 Build 0)  -->
<svg version="1.1" id="Camada_1" xmlns="http://www.w3.org/2000/svg" xmlns:xlink="http://www.w3.org/1999/xlink" x="0px" y="0px"
	 viewBox="0 0 367.4 81.9" style="enable-background:new 0 0 367.4 81.9;" xml:space="preserve">
<style type="text/css">
	.st0{fill:#58595B;}
	.st1{clip-path:url(#SVGID_2_);fill:#58595B;}
	.st2{clip-path:url(#SVGID_2_);fill:#53C4CD;}
</style>
<rect x="9" y="27.7" class="st0" width="9.3" height="35.1"/>
<g>
	<defs>
		<rect id="SVGID_1_" y="0" width="367.4" height="81.9"/>
	</defs>
	<clipPath id="SVGID_2_">
		<use xlink:href="#SVGID_1_"  style="overflow:visible;"/>
	</clipPath>
	<path class="st1" d="M39.4,63.7c-2.9,0-5.4-0.5-7.6-1.4c-2.2-0.9-4.1-2.2-5.7-3.8c-1.5-1.6-2.7-3.6-3.5-5.9
		c-0.8-2.3-1.2-4.8-1.2-7.5c0-2.8,0.4-5.3,1.2-7.6c0.8-2.3,2-4.2,3.6-5.9c1.6-1.6,3.5-2.9,5.7-3.8c2.2-0.9,4.7-1.3,7.5-1.3
		c2.8,0,5.2,0.4,7.4,1.3c2.2,0.9,4,2.1,5.6,3.7c1.5,1.6,2.7,3.5,3.6,5.8c0.8,2.3,1.2,4.8,1.2,7.7s-0.4,5.4-1.2,7.6
		c-0.8,2.3-2,4.2-3.6,5.8c-1.5,1.6-3.4,2.9-5.6,3.8C44.6,63.3,42.1,63.7,39.4,63.7 M39.4,56c5.7,0,8.5-3.6,8.5-10.7
		c0-7.1-2.8-10.6-8.5-10.6c-5.7,0-8.5,3.5-8.5,10.6C30.9,52.4,33.8,56,39.4,56"/>
	<path class="st1" d="M82.8,62.8V41.5c0-2.7-0.5-4.5-1.4-5.5c-0.9-1-2.5-1.4-4.6-1.4c-4.8,0-7.2,2.7-7.2,8.1v20.1h-9.3V27.7h8.8v5.1
		c1.1-2,2.5-3.5,4.3-4.6c1.8-1,4.1-1.5,7-1.5c1.7,0,3.2,0.3,4.6,0.8c1.4,0.5,2.6,1.3,3.7,2.3c1,1,1.8,2.2,2.4,3.7
		c0.6,1.5,0.9,3.1,0.9,5v24.4H82.8z"/>
	<rect x="96" y="27.7" class="st1" width="9.3" height="35.1"/>
	<path class="st1" d="M140.9,50.1c-0.2,2-0.8,3.9-1.7,5.6c-0.9,1.7-2.1,3.1-3.5,4.3c-1.4,1.2-3.1,2.1-4.9,2.8c-1.8,0.7-3.8,1-6,1
		c-2.4,0-4.6-0.4-6.5-1.2c-2-0.8-3.7-2-5.1-3.6c-1.4-1.6-2.5-3.6-3.3-5.9c-0.8-2.4-1.2-5.1-1.2-8.2c0-3.1,0.4-5.9,1.2-8.1
		c0.8-2.3,1.9-4.2,3.3-5.6c1.4-1.4,3.2-2.5,5.2-3.2c2-0.7,4.3-1.1,6.7-1.1c2.3,0,4.4,0.3,6.2,0.9c1.9,0.6,3.5,1.5,4.9,2.7
		c1.4,1.2,2.5,2.6,3.3,4.3c0.8,1.7,1.3,3.5,1.4,5.6h-9.4c-0.2-1.8-1-3.2-2.2-4.2c-1.2-1-2.7-1.5-4.5-1.5c-1,0-1.9,0.2-2.8,0.5
		c-0.9,0.3-1.6,0.9-2.2,1.7c-0.6,0.8-1.2,1.8-1.5,3.1c-0.4,1.3-0.6,2.9-0.6,4.8c0,3.9,0.7,6.7,2.1,8.6c1.4,1.9,3,2.8,4.8,2.8
		c1.8,0,3.4-0.5,4.6-1.5c1.3-1,2-2.4,2.2-4.4H140.9z"/>
	<path class="st1" d="M167.1,62.8V41c0-2.7-0.5-4.5-1.4-5.5c-0.9-1-2.5-1.5-4.6-1.5c-1.1,0-2.2,0.2-3.1,0.7
		c-0.9,0.5-1.7,1.1-2.3,1.9c-0.6,0.8-1.1,1.7-1.4,2.7c-0.3,1-0.5,2.1-0.5,3.3v20.1h-9.3v-48h9.3l0,17.4c0.3-0.8,0.8-1.5,1.5-2.2
		c0.7-0.7,1.5-1.3,2.4-1.7c0.9-0.5,1.9-0.9,3-1.1c1.1-0.3,2.2-0.4,3.4-0.4c3.6,0,6.5,1,8.8,3c2.3,2,3.4,4.7,3.4,8.2v24.8H167.1z"/>
	<path class="st1" d="M188.6,47.7c0.1,2.7,0.9,4.8,2.3,6.4c1.4,1.6,3.2,2.4,5.5,2.4c1.5,0,2.9-0.3,4-1c1.2-0.7,1.9-1.7,2.2-2.9h9.6
		c-1.1,3.6-3,6.4-5.7,8.4c-2.7,2-5.9,2.9-9.7,2.9c-11.7,0-17.6-6.4-17.6-19.1c0-2.7,0.4-5.2,1.1-7.4c0.8-2.2,1.9-4.1,3.3-5.6
		c1.5-1.6,3.2-2.8,5.3-3.6c2.1-0.8,4.5-1.2,7.2-1.2c5.4,0,9.5,1.7,12.3,5.2c2.8,3.5,4.2,8.7,4.2,15.7H188.6z M203.3,41.8
		c0-1.3-0.3-2.4-0.7-3.4c-0.4-1-0.9-1.8-1.6-2.4c-0.7-0.6-1.4-1.1-2.3-1.4c-0.9-0.3-1.7-0.5-2.6-0.5c-1.9,0-3.5,0.7-4.8,2
		c-1.4,1.4-2.1,3.2-2.3,5.7H203.3z"/>
	<path class="st1" d="M237.7,62.8c-0.3-0.9-0.5-2-0.6-3.1c-1.1,1.2-2.5,2.2-4.4,3c-1.8,0.7-3.9,1.1-6.3,1.1c-4,0-7-0.9-8.9-2.7
		c-1.9-1.8-2.8-4.1-2.8-7c0-2.5,0.4-4.5,1.2-6c0.8-1.5,1.9-2.7,3.4-3.5c1.4-0.9,3.1-1.5,5.1-1.9c2-0.4,4.1-0.8,6.5-1.1
		c2.3-0.3,3.9-0.8,4.7-1.3c0.8-0.5,1.2-1.4,1.2-2.7c0-1.1-0.5-2-1.6-2.7c-1.1-0.6-2.5-1-4.3-1c-2.1,0-3.7,0.5-4.6,1.4
		c-0.9,1-1.5,2.2-1.8,3.8h-8.6c0-1.8,0.3-3.5,0.9-5c0.5-1.5,1.4-2.8,2.6-3.9c1.2-1.1,2.8-1.9,4.7-2.5c1.9-0.6,4.3-0.9,7.1-0.9
		c2.8,0,5.1,0.3,7,0.9c1.9,0.6,3.5,1.5,4.6,2.7c1.2,1.2,2,2.6,2.5,4.4c0.5,1.7,0.8,3.7,0.8,5.9v22.2H237.7z M237,45.6
		c-0.5,0.5-1.2,0.9-2.1,1.1c-0.9,0.3-2.2,0.6-3.9,0.9c-2.7,0.5-4.5,1.2-5.5,2c-1,0.8-1.5,2-1.5,3.5c0,2.6,1.5,3.9,4.5,3.9
		c1.2,0,2.3-0.2,3.3-0.6c1-0.4,1.9-1,2.6-1.6c0.7-0.7,1.3-1.5,1.8-2.4s0.7-1.9,0.7-3L237,45.6z"/>
	<rect x="250" y="14.9" class="st1" width="9.3" height="48"/>
	<path class="st1" d="M282.9,39.7h8.6v10c0,1.9-0.3,3.6-0.8,5.3c-0.5,1.7-1.4,3.2-2.6,4.5c-1.2,1.3-2.6,2.3-4.4,3.1
		c-1.8,0.8-3.9,1.1-6.4,1.1c-2.6,0-4.7-0.4-6.6-1.1c-1.8-0.8-3.3-1.8-4.4-3.1c-1.2-1.3-2-2.8-2.5-4.5c-0.5-1.7-0.8-3.5-0.8-5.4V18.2
		h9.2v9.5h19.3v6.6h-19.3v14.4c0,2.2,0.4,4,1.2,5.2c0.8,1.2,2.2,1.8,4.1,1.8c1.8,0,3.2-0.6,4.1-1.8c0.9-1.2,1.3-2.9,1.3-5.1V39.7z"
		/>
	<path class="st1" d="M317.3,62.8V41c0-2.7-0.5-4.5-1.4-5.5c-0.9-1-2.5-1.5-4.6-1.5c-1.1,0-2.2,0.2-3.1,0.7
		c-0.9,0.5-1.7,1.1-2.3,1.9c-0.6,0.8-1.1,1.7-1.4,2.7c-0.3,1-0.5,2.1-0.5,3.3v20.1h-9.3v-48h9.3l0,17.4c0.3-0.8,0.8-1.5,1.5-2.2
		c0.7-0.7,1.5-1.3,2.4-1.7c0.9-0.5,1.9-0.9,3-1.1c1.1-0.3,2.2-0.4,3.4-0.4c3.6,0,6.5,1,8.8,3c2.3,2,3.4,4.7,3.4,8.2v24.8H317.3z"/>
	<path class="st1" d="M354.1,28.8v2.9h-0.4v-2.9h-0.9v-0.4h2.3v0.4H354.1z M358.1,31.7v-2.4l-0.8,1.6h-0.4l-0.8-1.6v2.4h-0.4v-3.3
		h0.4l1,2l1-2h0.4v3.3H358.1z"/>
	<path class="st2" d="M356.5,17.8c-1.5-1.8-4.8-3.3-9-4.1C346.3,6.9,343.2,2,339.4,2c-3.7,0-6.9,4.7-8.2,11.4
		c-7.7,1.3-11.7,4.5-9.2,7.6c1.4,1.8,4.7,3.2,8.8,4.1c1,7.5,4.3,13,8.3,13c1.4,0,2.7-0.6,3.9-1.8c3.3-3.6,4.4-9,4.8-12.8h0
		c0.1-1.1,0.2-2.2,0.2-3.3c0-0.4,0-0.9,0-1.3l0,0c0,0,0,0,0-0.1h0c0,0,0,0,0,0l0.2,0.1c1.5,0.4,2.6,0.9,3.1,1.5
		c0.7,0.9,0,1.9-1.8,2.6c-0.1,0.8-0.2,1.5-0.4,2.2C355.6,23.7,358.9,20.7,356.5,17.8 M336.9,6.4c1.6,0,3.1,2.6,3.8,6.4
		c-2.1-0.1-4.3-0.1-6.5,0.1c-0.4,0-0.8,0.1-1.2,0.1C333.7,9.1,335.2,6.4,336.9,6.4 M341.1,20.5c-0.2,3.7-0.7,5.3-0.8,5.5h0
		c-0.8,3.1-2.1,5.1-3.5,5.1c-0.7,0-1.4-0.5-2-1.4c-1.3-2-1.8-5.3-1.8-5.3c-2.1-0.4-2.2-0.4-2.2-0.4c-0.2-0.1-0.4-0.1-0.5-0.2
		c-1.2-0.4-2-0.8-2.4-1.3c-0.8-1,0.1-2,2.1-2.8c0.4-0.2,0.7-0.3,0.7-0.3c5.5-1.7,10.6-1.4,10.6-1.4c0,0.1,0,0.3,0,0.4
		c0,0.1,0,0.3,0,0.4C341.2,19.3,341.1,19.9,341.1,20.5"/>
</g>
</svg>
